# xmcd
#
# Track frame offsets:
#	150
#	18120
#	33330
#	62001
#	80712
#	94762
#	110093
#	127383
#	142013
#	155224
#
# Disc length: 2269 seconds
#
# Revision: 1
# Processed by: cddbd v1.5.1PL0 Copyright (c) Steve Scherf et al.
# Submitted via: audiograbber 1.83.01
#
DISCID=8f08db0a
DTITLE=Chet Atkins and Mark Knopfler - Neck And Neck
DYEAR=1990
DGENRE=Blues
TTITLE0=Poor Boy Blues
TTITLE1=Sweet Dreams
TTITLE2=There'll Be Some Changes Made
TTITLE3=Just One Time
TTITLE4=So Soft, Your Goodbye
TTITLE5=Yakety Axe
TTITLE6=Tears
TTITLE7=Tahitian Skies
TTITLE8=I'll See You in My Dreams
TTITLE9=The Next Time I'm in Town
EXTD=
EXTT0=
EXTT1=
EXTT2=
EXTT3=
EXTT4=
EXTT5=
EXTT6=
EXTT7=
EXTT8=
EXTT9=
PLAYORDER=
